<?xml version="1.0" standalone="no"?><!DOCTYPE svg PUBLIC "-//W3C//DTD SVG 1.1//EN" "http://www.w3.org/Graphics/SVG/1.1/DTD/svg11.dtd"><svg t="1741243472162" class="icon" viewBox="0 0 1098 1024" version="1.1" xmlns="http://www.w3.org/2000/svg" p-id="42462" xmlns:xlink="http://www.w3.org/1999/xlink" width="214.453125" height="200"><path d="M380.797475 969.53913a37.274837 37.274837 0 0 1-37.288402-37.288401V791.846129C179.231216 721.542097 74.50086 577.12245 74.50086 417.632809 74.50086 187.350819 291.950974 0 559.250079 0s484.735654 187.350819 484.735654 417.632809c0 226.63318-210.613681 411.678059-472.039421 417.483601l-168.726965 126.880941a37.356223 37.356223 0 0 1-22.421872 7.541779zM559.250079 74.576803c-226.171992 0-410.172416 153.887564-410.172416 343.056006 0 135.643512 96.049171 258.902771 244.660203 313.919779a37.274837 37.274837 0 0 1 24.415832 34.955333v90.976104l118.74233-89.307688a37.288401 37.288401 0 0 1 22.354051-7.528215c226.185556 0 410.172416-153.860436 410.172416-343.015313S785.435635 74.576803 559.250079 74.576803z m0 0" fill="#444444" p-id="42463"></path><path d="M535.851573 661.804695c-135.317967 0-245.663964-81.11482-295.214539-216.961798l87.571451-31.930482c36.081174 98.924813 111.756689 155.678059 207.643088 155.678058z m0 0" fill="#00D8A0" p-id="42464"></path></svg>